<svg width="1000" height="1000" viewBox="0 0 1000 1000" fill="none" xmlns="http://www.w3.org/2000/svg">
<path fill-rule="evenodd" clip-rule="evenodd" d="M500 0C100 0 0 100 0 500C0 900 100 1000 500 1000C900 1000 1000 900 1000 500C1000 100 900 0 500 0Z" fill="#E9E9E9"/>
<path d="M493.792 684.175C494.748 685.093 495.291 686.339 495.222 687.663C492.645 736.687 399.034 830.298 350.01 832.875C348.685 832.945 347.44 832.402 346.521 831.445C307.562 790.899 308.047 725.558 347.976 685.629C387.905 645.7 453.246 645.216 493.792 684.175Z" fill="#6E522D"/>
<path d="M879 568.631C879 571.392 876.755 573.642 873.996 573.525C811.878 570.895 762.173 519.524 762.173 456.728V392.294C762.173 329.497 811.878 278.126 873.996 275.496C876.755 275.379 879 277.629 879 280.39V330.014C879 332.776 876.754 334.992 874.003 335.23C844.757 337.769 821.758 362.377 821.758 392.294V456.728C821.758 486.644 844.757 511.252 874.003 513.791C876.754 514.03 879 516.245 879 519.007V568.631Z" fill="#6E522D"/>
<path d="M680.489 305.579H619.051C615.143 305.579 612.706 301.269 614.455 297.774C621.088 284.513 624.944 269.665 625.258 254.013C625.285 252.684 624.786 251.423 623.796 250.536C587.309 217.821 455.131 217.821 418.682 250.536C417.694 251.423 417.196 252.683 417.222 254.011C417.536 269.664 421.392 284.513 428.026 297.774C429.774 301.269 427.338 305.579 423.43 305.579H181.838C148.807 305.579 122 332.321 122 365.271V627.916C122 660.866 148.807 687.609 181.838 687.609H295.531C328.561 687.609 355.369 660.866 355.369 627.916V606.029C355.369 573.079 382.176 546.337 415.207 546.337H421.774C425.59 546.337 428.028 550.459 426.447 553.932C420.802 566.325 417.513 579.982 417.223 594.322C417.196 595.651 417.695 596.912 418.684 597.799C455.171 630.514 587.349 630.514 623.798 597.799C624.786 596.912 625.285 595.652 625.258 594.324C624.97 579.988 621.708 566.335 616.053 553.944C614.467 550.469 616.906 546.337 620.726 546.337H680.489C713.52 546.337 740.327 519.595 740.327 486.645V365.271C740.327 332.321 713.52 305.579 680.489 305.579ZM676.5 518.481C664.075 518.481 653.724 508.816 652.656 496.678C652.539 495.355 653.069 494.043 654.174 493.307C663.534 487.078 689.466 487.078 698.826 493.307C699.932 494.043 700.461 495.355 700.344 496.678C699.276 508.816 688.925 518.481 676.5 518.481ZM654.174 362.589C653.069 361.853 652.539 360.542 652.656 359.219C653.724 347.08 664.075 337.415 676.5 337.415C688.925 337.415 699.276 347.08 700.344 359.219C700.461 360.542 699.932 361.853 698.826 362.589C689.466 368.819 663.534 368.819 654.174 362.589Z" fill="#6E522D"/>
</svg>
