<svg width="48" height="48" viewBox="0 0 48 48" fill="none" xmlns="http://www.w3.org/2000/svg">
<rect x="0.5" y="0.5" width="47" height="47" rx="23.5" stroke="black"/>
<path d="M28.3622 34.1977L20.5157 27.9676C22.6067 26.0217 29.958 19.1761 30.3111 18.835L30.3112 18.835C30.488 18.6642 30.6335 18.4737 30.7072 18.2693C30.7803 18.0663 30.8076 17.7476 30.5627 17.5055C30.3443 17.2896 30.0534 17.2859 29.866 17.3165C29.6594 17.3502 29.4451 17.4425 29.2366 17.5735L29.2366 17.5734L29.228 17.5791L16.5596 25.9102L11.834 24.2637L11.8221 24.2588C11.8085 24.2531 11.7867 24.2434 11.7593 24.2299C11.7034 24.2023 11.6298 24.1612 11.5567 24.1076C11.3973 23.9907 11.3141 23.8707 11.3007 23.7593L11.3006 23.7586C11.2981 23.7373 11.306 23.6505 11.5062 23.5086C11.5897 23.4493 11.6792 23.4016 11.7506 23.3682C11.7854 23.3518 11.8139 23.3398 11.8326 23.3323C11.8419 23.3286 11.8486 23.326 11.8523 23.3246L11.8546 23.3237L11.8552 23.3235L11.8554 23.3234L11.8555 23.3234L11.8644 23.3203L11.8751 23.3159L32.1239 15.09L32.1335 15.0861L32.1418 15.0823L32.142 15.0822L32.1423 15.0821L32.1426 15.082L32.1428 15.0819L32.143 15.0818L32.1519 15.0779C32.1607 15.0742 32.1748 15.0682 32.1934 15.0607C32.231 15.0457 32.286 15.0248 32.3523 15.0029C32.4893 14.9578 32.6549 14.9152 32.807 14.9033C32.9709 14.8904 33.0424 14.919 33.0604 14.9311L33.0608 14.9314C33.0632 14.9329 33.0674 14.9357 33.074 14.95C33.0816 14.9665 33.0951 15.0059 33.099 15.0806L29.5134 33.7994C29.5029 33.8205 29.4874 33.8498 29.4666 33.8838C29.4168 33.9651 29.3441 34.0613 29.2489 34.1402C29.1566 34.2167 29.0472 34.274 28.9127 34.293C28.7879 34.3107 28.6089 34.3001 28.3622 34.1977ZM11.8368 24.2648C11.8369 24.2648 11.8369 24.2648 11.8368 24.2648L11.8368 24.2648ZM29.5289 33.7661C29.529 33.7657 29.5287 33.7665 29.5279 33.7682L29.5283 33.7674L29.5289 33.7661Z" stroke="black"/>
</svg>
