<svg width="48" height="48" viewBox="0 0 48 48" fill="none" xmlns="http://www.w3.org/2000/svg">
<rect x="0.5" y="0.5" width="47" height="47" rx="23.5" stroke="black"/>
<path d="M14.2387 29.6559L14.2929 29.456L14.1898 29.2763C13.1779 27.5114 12.5878 25.4093 12.5878 23.3125C12.5878 16.6778 17.9818 11.3 24.6439 11.3C27.8473 11.3 30.8816 12.5594 33.1593 14.8292C35.4299 17.0919 36.6138 20.1137 36.7 23.2318C36.6963 29.8634 31.3037 35.2375 24.6439 35.2375C22.6214 35.2375 20.6808 34.734 18.9045 33.8067L18.7332 33.7173L18.5463 33.7663L12.7087 35.2972L14.2387 29.6559ZM26.4783 29.6395L26.5097 29.652L26.5425 29.6602C27.3133 29.8522 28.0827 29.8537 28.6718 29.7566C29.0793 29.697 29.6079 29.4594 30.0546 29.1666C30.4933 28.879 30.9806 28.4555 31.1704 27.9511C31.3187 27.557 31.3947 27.183 31.4203 26.8634C31.4451 26.5553 31.4259 26.2615 31.3522 26.0414L31.3147 25.9293L31.231 25.8458C31.1349 25.7501 31.0171 25.6787 30.9117 25.6204C30.8063 25.562 30.6712 25.4946 30.5104 25.4144C30.3224 25.2968 29.8569 25.056 29.4327 24.8447C29.1999 24.7286 28.9657 24.6147 28.7719 24.5237C28.5909 24.4388 28.4135 24.3586 28.3137 24.3255C28.3068 24.3232 28.2993 24.3207 28.2912 24.3179C28.1785 24.2799 27.9557 24.2047 27.7268 24.2255C27.5856 24.2383 27.4381 24.2857 27.3028 24.386C27.1714 24.4833 27.0764 24.6119 27.0068 24.7508C26.9473 24.8693 26.7844 25.0921 26.5843 25.3358C26.3923 25.5697 26.2064 25.7745 26.1349 25.8458C26.1202 25.8604 26.1088 25.8708 26.1004 25.8779C26.082 25.8726 26.0522 25.8618 26.0084 25.84C25.9479 25.8098 25.8745 25.7765 25.7893 25.7377C25.3376 25.5323 24.5514 25.1747 23.5693 24.3371C22.6854 23.5348 22.1179 22.6587 21.9463 22.3327C21.9636 22.3145 21.9845 22.2935 22.0115 22.2667C22.0559 22.2224 22.0991 22.1692 22.1307 22.1295C22.1533 22.1012 22.1792 22.0678 22.2043 22.0354C22.2163 22.0199 22.2281 22.0047 22.2393 21.9904C22.3162 21.8919 22.3871 21.8049 22.4505 21.7417C22.6839 21.509 22.8024 21.2729 22.8897 21.0987L22.8957 21.0867C23.0543 20.7706 23.0543 20.4294 22.8957 20.1133L22.8593 20.0407L22.8453 20.0268C22.8443 20.0247 22.8432 20.0225 22.8421 20.0202C22.821 19.9771 22.7921 19.9136 22.756 19.831C22.6844 19.667 22.5929 19.4473 22.4942 19.207C22.433 19.0577 22.3688 18.9001 22.3054 18.7445C22.1677 18.4065 22.0339 18.0781 21.9423 17.8649C21.7878 17.5057 21.5884 17.2432 21.3051 17.1148C21.1661 17.0519 21.0377 17.036 20.9401 17.0335C20.8936 17.0324 20.8523 17.0342 20.8259 17.0355L20.8124 17.0362C20.7913 17.0372 20.7858 17.0375 20.7805 17.0375H20.7795H20.7784H20.7774H20.7764H20.7753H20.7743H20.7732H20.7722H20.7711H20.7701H20.769H20.768H20.7669H20.7659H20.7648H20.7638H20.7627H20.7616H20.7606H20.7595H20.7584H20.7574H20.7563H20.7552H20.7542H20.7531H20.752H20.7509H20.7498H20.7487H20.7477H20.7466H20.7455H20.7444H20.7433H20.7422H20.7411H20.74H20.7389H20.7378H20.7367H20.7356H20.7345H20.7334H20.7323H20.7312H20.73H20.7289H20.7278H20.7267H20.7256H20.7244H20.7233H20.7222H20.7211H20.7199H20.7188H20.7177H20.7165H20.7154H20.7143H20.7131H20.712H20.7109H20.7097H20.7086H20.7074H20.7063H20.7051H20.704H20.7028H20.7017H20.7005H20.6994H20.6982H20.6971H20.6959H20.6947H20.6936H20.6924H20.6912H20.6901H20.6889H20.6877H20.6866H20.6854H20.6842H20.683H20.6819H20.6807H20.6795H20.6783H20.6772H20.676H20.6748H20.6736H20.6724H20.6712H20.67H20.6688H20.6677H20.6665H20.6653H20.6641H20.6629H20.6617H20.6605H20.6593H20.6581H20.6569H20.6557H20.6545H20.6533H20.6521H20.6509H20.6496H20.6484H20.6472H20.646H20.6448H20.6436H20.6424H20.6412H20.6399H20.6387H20.6375H20.6363H20.6351H20.6338H20.6326H20.6314H20.6302H20.6289H20.6277H20.6265H20.6253H20.624H20.6228H20.6216H20.6203H20.6191H20.6179H20.6166H20.6154H20.6141H20.6129H20.6117H20.6104H20.6092H20.6079H20.6067H20.6055H20.6042H20.603H20.6017H20.6005H20.5992H20.598H20.5967H20.5955H20.5942H20.593H20.5917H20.5905H20.5892H20.588H20.5867H20.5855H20.5842H20.5829H20.5817H20.5804H20.5792H20.5779H20.5767H20.5754H20.5741H20.5729H20.5716H20.5703H20.5691H20.5678H20.5666H20.5653H20.564H20.5628H20.5615H20.5602H20.559H20.5577H20.5564H20.5551H20.5539H20.5526H20.5513H20.5501H20.5488H20.5475H20.5462H20.545H20.5437H20.5424H20.5411H20.5399H20.5386H20.5373H20.536H20.5348H20.5335H20.5322H20.5309H20.5296H20.5284H20.5271H20.5258H20.5245H20.5233H20.522H20.5207H20.5194H20.5181H20.5168H20.5156H20.5143H20.513H20.5117H20.5104H20.5092H20.5079H20.5066H20.5053H20.504H20.5027H20.5015H20.5002H20.4989H20.4976H20.4963H20.495H20.4937H20.4925H20.4912H20.4899H20.4886H20.4873H20.486H20.4847H20.4835H20.4822H20.4809H20.4796H20.4783H20.477H20.4757H20.4745H20.4732H20.4719H20.4706H20.4693H20.468H20.4667H20.4655H20.4642H20.4629H20.4616H20.4603H20.459H20.4577H20.4565H20.4552H20.4539H20.4526H20.4513H20.45H20.4487H20.4475H20.4462H20.4449H20.4436H20.4423H20.441H20.4398H20.4385H20.4372H20.4359H20.4346H20.4333H20.4321H20.4308H20.4295H20.4282H20.4269H20.4256H20.4244H20.4231H20.4218H20.4205H20.4192H20.418H20.4167H20.4154H20.4141H20.4129H20.4116H20.4103H20.409H20.4077H20.4065H20.4052H20.4039H20.4026H20.4014H20.4001H20.3988H20.3976H20.3963H20.395H20.3937H20.3925H20.3912H20.3899H20.3887H20.3874H20.3861H20.3849H20.3836H20.3823H20.3811H20.3798H20.3785H20.3773H20.376H20.3747H20.3735H20.3722H20.3709H20.3697H20.3684H20.3672H20.3659H20.3646H20.3634H20.3621H20.3609H20.3596H20.3584H20.3571H20.3559H20.3546H20.3534H20.3521H20.3509H20.3496H20.3484H20.3471H20.3459H20.3446H20.3434H20.3421H20.3409H20.3396H20.3384H20.3371H20.3359H20.3347H20.3334H20.3322H20.331H20.3297H20.3285H20.3272H20.326H20.3248H20.3235H20.3223H20.3211H20.3199H20.3186H20.3174H20.3162H20.3149H20.3137H20.3125H20.3113H20.3101H20.3088H20.3076H20.3064H20.3052H20.304H20.3028H20.3015H20.3003H20.2991H20.2979H20.2967H20.2955H20.2943H20.2931H20.2919H20.2907H20.2895H20.2883H20.2871H20.2859H20.2847H20.2835H20.2823H20.2811H20.2799H20.2787H20.2775H20.2763H20.2751H20.2739H20.2727H20.2716H20.2704H20.2692H20.268H20.2668H20.2656H20.2645H20.2633H20.2621H20.2609H20.2598H20.2586H20.2574H20.2563H20.2551H20.2539H20.2528H20.2516H20.2504H20.2493H20.2481H20.247H20.2458H20.2447H20.2435H20.2424H20.2412H20.2401H20.2389H20.2378H20.2366H20.2355H20.2343H20.2332H20.2321H20.2309H20.2298H20.2287H20.2275H20.2264H20.2253H20.2241H20.223H20.2219H20.2208H20.2196H20.2185H20.2174H20.2163H20.2152H20.2141H20.213H20.2119H20.2107H20.2096H20.2085H20.2074H20.2063H20.2052H20.2041H20.203H20.2019H20.2009H20.1998H20.1987H20.1976H20.1965H20.1954H20.1943H20.1933H20.1922H20.1911H20.19H20.189H20.1879H20.1868H20.1858H20.1847H20.1836H20.1826H20.1815H20.1805H20.1794H20.1783H20.1773H20.1762H20.1752H20.1741H20.1731H20.1721H20.171H20.17H20.1689H20.1679H20.1669H20.1659C20.1594 17.0375 20.1527 17.0375 20.1458 17.0375C19.8785 17.0371 19.3027 17.0362 18.8883 17.5868C18.8714 17.6093 18.843 17.6429 18.8064 17.6864C18.6709 17.8471 18.4227 18.1416 18.2249 18.4981C17.956 18.983 17.7341 19.6347 17.7341 20.5125C17.7341 21.4129 18.0576 22.261 18.3833 22.887C18.6776 23.4527 19.0005 23.8867 19.1574 24.0609C19.4377 24.4852 21.4958 27.5924 24.6998 28.9302C25.2122 29.1841 25.7098 29.3613 26.0885 29.4961C26.2396 29.5499 26.3717 29.597 26.4783 29.6395ZM26.1239 25.8829C26.1239 25.883 26.1232 25.883 26.1217 25.8828L26.1239 25.8829ZM22.8609 20.0569C22.8605 20.0563 22.8601 20.0555 22.8595 20.0545C22.8647 20.0626 22.8653 20.0646 22.8609 20.0569Z" stroke="black"/>
</svg>
