<svg width="30" height="30" viewBox="0 0 30 30" fill="none" xmlns="http://www.w3.org/2000/svg">
<path d="M25.3994 4.8876C22.6829 2.13135 19.061 0.600098 15.2378 0.600098C7.28963 0.600098 0.850608 7.13343 0.850608 15.198C0.850608 17.7501 1.55488 20.3022 2.7622 22.4459L0.75 30.0001L8.39634 27.9584C10.5091 29.0813 12.8232 29.6938 15.2378 29.6938C23.186 29.6938 29.625 23.1605 29.625 15.0959C29.5244 11.3188 28.1158 7.64385 25.3994 4.8876ZM22.1799 20.4043C21.878 21.2209 20.4695 22.0376 19.7652 22.1397C19.1616 22.2418 18.3567 22.2418 17.5518 22.0376C17.0488 21.8334 16.3445 21.6293 15.5396 21.2209C11.9177 19.6897 9.60366 16.0147 9.40244 15.7084C9.20122 15.5043 7.89329 13.7688 7.89329 11.9313C7.89329 10.0938 8.79878 9.27718 9.10061 8.86885C9.40244 8.46051 9.80488 8.46051 10.1067 8.46051C10.3079 8.46051 10.6098 8.46051 10.811 8.46051C11.0122 8.46051 11.314 8.35843 11.6159 9.07301C11.9177 9.7876 12.6219 11.6251 12.7226 11.7272C12.8232 11.9313 12.8232 12.1355 12.7226 12.3397C12.6219 12.5438 12.5213 12.748 12.3201 12.9522C12.1189 13.1563 11.9177 13.4626 11.8171 13.5647C11.6158 13.7688 11.4146 13.973 11.6159 14.2793C11.8171 14.6876 12.5213 15.8105 13.628 16.8313C15.0366 18.0563 16.1433 18.4647 16.5457 18.6688C16.9482 18.873 17.1494 18.7709 17.3506 18.5668C17.5518 18.3626 18.2561 17.5459 18.4573 17.1376C18.6585 16.7293 18.9604 16.8313 19.2622 16.9334C19.564 17.0355 21.375 17.9543 21.6768 18.1584C22.0793 18.3626 22.2805 18.4647 22.3811 18.5668C22.4817 18.873 22.4817 19.5876 22.1799 20.4043Z" fill="#6E522D"/>
</svg>
